<?xml version="1.0" encoding="UTF-8"?>
<svg id="Layer_1" xmlns="http://www.w3.org/2000/svg" version="1.1" viewBox="0 0 48 48">
  <!-- Generator: Adobe Illustrator 30.1.0, SVG Export Plug-In . SVG Version: 2.1.1 Build 136)  -->
  <defs>
    <style>
      .st0 {
        stroke-linecap: round;
      }

      .st0, .st1 {
        fill: none;
        stroke: #4e6928;
        stroke-miterlimit: 10;
        stroke-width: 2px;
      }
    </style>
  </defs>
  <path class="st1" d="M25.65,1.48c-.96-.83-2.35-.83-3.3,0-5.18,4.49-8.47,11.1-8.47,18.49,0,.9.07,1.79.17,2.66s.67,1.71,1.53,2.03c2.63.96,5.46,1.5,8.42,1.5s5.79-.53,8.42-1.49c.86-.31,1.42-1.12,1.53-2.03s.17-1.76.17-2.66c0-7.39-3.29-14-8.47-18.49Z"/>
  <line class="st0" x1="24" y1="19.86" x2="24" y2="32.37"/>
  <path class="st1" d="M20.93,32.37h6.15c.53,0,.96.43.96.96v11.12c0,1.48-1.2,2.69-2.69,2.69h-2.69c-1.48,0-2.69-1.2-2.69-2.69v-11.12c0-.53.43-.96.96-.96Z"/>
</svg>