<?xml version="1.0" encoding="UTF-8"?>
<svg id="Layer_1" xmlns="http://www.w3.org/2000/svg" version="1.1" viewBox="0 0 47.44 47.44">
  <!-- Generator: Adobe Illustrator 30.1.0, SVG Export Plug-In . SVG Version: 2.1.1 Build 136)  -->
  <defs>
    <style>
      .st0, .st1 {
        fill: none;
        stroke: #231f20;
        stroke-miterlimit: 10;
        stroke-width: 1.5px;
      }

      .st1 {
        stroke-linecap: round;
      }
    </style>
  </defs>
  <path class="st0" d="M24.82,8.7c-.64-.55-1.57-.55-2.2,0-3.45,2.99-5.65,7.4-5.65,12.33,0,.6.04,1.19.12,1.77s.45,1.14,1.02,1.35c1.75.64,3.64,1,5.61,1s3.86-.35,5.61-1c.57-.21.95-.75,1.02-1.35s.12-1.17.12-1.77c0-4.93-2.19-9.34-5.65-12.33Z"/>
  <line class="st1" x1="23.72" y1="20.96" x2="23.72" y2="29.3"/>
  <path class="st0" d="M21.99,29.3h3.46c.53,0,.96.43.96.96v6.2c0,1.48-1.2,2.69-2.69,2.69h0c-1.48,0-2.69-1.2-2.69-2.69v-6.2c0-.53.43-.96.96-.96Z"/>
</svg>