<?xml version="1.0" encoding="UTF-8"?>
<svg id="Layer_1" xmlns="http://www.w3.org/2000/svg" version="1.1" viewBox="0 0 48 48">
  <!-- Generator: Adobe Illustrator 30.1.0, SVG Export Plug-In . SVG Version: 2.1.1 Build 136)  -->
  <defs>
    <style>
      .st0 {
        fill: none;
        stroke: #4e6928;
        stroke-linecap: round;
        stroke-miterlimit: 10;
        stroke-width: 2px;
      }
    </style>
  </defs>
  <g>
    <rect class="st0" x="29.03" y="6.75" width="6.83" height="12.86" rx=".62" ry=".62" transform="translate(45.62 -19.26) rotate(90)"/>
    <rect class="st0" x="12.14" y="6.75" width="6.83" height="12.86" rx=".62" ry=".62" transform="translate(28.74 -2.38) rotate(90)"/>
  </g>
  <g>
    <rect class="st0" x="20.59" y="17.57" width="6.83" height="12.86" rx=".62" ry=".62" transform="translate(48) rotate(90)"/>
    <rect class="st0" x="3.7" y="17.57" width="6.83" height="12.86" rx=".62" ry=".62" transform="translate(31.12 16.88) rotate(90)"/>
    <rect class="st0" x="37.47" y="17.57" width="6.83" height="12.86" rx=".62" ry=".62" transform="translate(64.88 -16.88) rotate(90)"/>
  </g>
  <g>
    <rect class="st0" x="12.14" y="28.39" width="6.83" height="12.86" rx=".62" ry=".62" transform="translate(50.38 19.26) rotate(90)"/>
    <rect class="st0" x="29.03" y="28.39" width="6.83" height="12.86" rx=".62" ry=".62" transform="translate(67.26 2.38) rotate(90)"/>
  </g>
</svg>