<?xml version="1.0" encoding="UTF-8"?>
<svg id="Layer_1" xmlns="http://www.w3.org/2000/svg" version="1.1" viewBox="0 0 47.44 47.44">
  <!-- Generator: Adobe Illustrator 30.1.0, SVG Export Plug-In . SVG Version: 2.1.1 Build 136)  -->
  <defs>
    <style>
      .st0 {
        fill: none;
        stroke: #4e6928;
        stroke-linecap: round;
        stroke-miterlimit: 10;
        stroke-width: 1.5px;
      }
    </style>
  </defs>
  <g>
    <rect class="st0" x="27.49" y="10.78" width="5.12" height="9.65" rx=".62" ry=".62" transform="translate(45.66 -14.45) rotate(90)"/>
    <rect class="st0" x="14.83" y="10.78" width="5.12" height="9.65" rx=".62" ry=".62" transform="translate(32.99 -1.79) rotate(90)"/>
  </g>
  <g>
    <rect class="st0" x="21.16" y="18.9" width="5.12" height="9.65" rx=".62" ry=".62" transform="translate(47.44) rotate(90)"/>
    <rect class="st0" x="8.49" y="18.9" width="5.12" height="9.65" rx=".62" ry=".62" transform="translate(34.78 12.67) rotate(90)"/>
    <rect class="st0" x="33.83" y="18.9" width="5.12" height="9.65" rx=".62" ry=".62" transform="translate(60.11 -12.67) rotate(90)"/>
  </g>
  <g>
    <rect class="st0" x="14.83" y="27.02" width="5.12" height="9.65" rx=".62" ry=".62" transform="translate(49.23 14.45) rotate(90)"/>
    <rect class="st0" x="27.49" y="27.02" width="5.12" height="9.65" rx=".62" ry=".62" transform="translate(61.9 1.79) rotate(90)"/>
  </g>
</svg>